<svg width="25" height="25" viewBox="0 0 25 25" fill="none" xmlns="http://www.w3.org/2000/svg">
<circle cx="12.5" cy="12.5" r="12.5" fill="#554447"/>
<path d="M14.8388 8.91613L16.0841 10.1614M15.6393 7.81907L12.2705 11.1879C12.0965 11.3617 11.9777 11.5832 11.9293 11.8244L11.6182 13.382L13.1758 13.0702C13.417 13.022 13.6382 12.9038 13.8123 12.7297L17.1811 9.36083C17.2823 9.2596 17.3626 9.13942 17.4174 9.00715C17.4722 8.87488 17.5004 8.73312 17.5004 8.58995C17.5004 8.44678 17.4722 8.30502 17.4174 8.17275C17.3626 8.04048 17.2823 7.9203 17.1811 7.81907C17.0799 7.71783 16.9597 7.63753 16.8274 7.58274C16.6952 7.52795 16.5534 7.49976 16.4102 7.49976C16.2671 7.49976 16.1253 7.52795 15.993 7.58274C15.8608 7.63753 15.7406 7.71783 15.6393 7.81907Z" stroke="white" stroke-linecap="round" stroke-linejoin="round"/>
<path d="M16.3245 14.5586V16.3233C16.3245 16.6354 16.2006 16.9346 15.9799 17.1552C15.7593 17.3759 15.4601 17.4998 15.148 17.4998H8.67745C8.36543 17.4998 8.06619 17.3759 7.84556 17.1552C7.62493 16.9346 7.50098 16.6354 7.50098 16.3233V9.85274C7.50098 9.54072 7.62493 9.24148 7.84556 9.02085C8.06619 8.80022 8.36543 8.67627 8.67745 8.67627H10.4422" stroke="white" stroke-linecap="round" stroke-linejoin="round"/>
</svg>
